<?xml version="1.0" standalone="no"?>
<!DOCTYPE svg PUBLIC "-//W3C//DTD SVG 20010904//EN"
 "http://www.w3.org/TR/2001/REC-SVG-20010904/DTD/svg10.dtd">
<svg version="1.0" xmlns="http://www.w3.org/2000/svg"
 width="956.000000pt" height="956.000000pt" viewBox="0 0 956.000000 956.000000"
 preserveAspectRatio="xMidYMid meet">
<metadata>
Created by potrace 1.14, written by Peter Selinger 2001-2017
</metadata>
<g transform="translate(0.000000,956.000000) scale(0.100000,-0.100000)"
fill="#000000" stroke="none">
<path d="M4315 9464 c-163 -24 -202 -31 -225 -40 -15 -6 -27 -8 -105 -18 -22
-3 -49 -7 -60 -9 -11 -3 -41 -7 -66 -11 -75 -11 -89 -14 -199 -47 -58 -16
-110 -31 -117 -33 -7 -1 -16 -5 -19 -9 -4 -4 -16 -7 -26 -7 -10 0 -18 -4 -18
-8 0 -5 -6 -9 -12 -9 -7 0 -26 -4 -43 -7 -16 -4 -41 -9 -55 -12 -37 -7 -149
-44 -195 -64 -22 -10 -101 -41 -175 -70 -74 -29 -172 -70 -217 -91 -44 -22
-86 -39 -92 -39 -6 0 -11 -5 -11 -12 0 -6 -3 -8 -7 -5 -3 4 -15 -1 -26 -10
-10 -10 -21 -17 -23 -15 -12 9 -432 -237 -489 -286 -6 -5 -24 -17 -40 -28 -38
-24 -39 -25 -107 -79 -32 -25 -58 -43 -58 -40 0 2 -13 -8 -29 -23 -49 -44 -59
-52 -73 -52 -13 0 -82 -59 -89 -76 -2 -5 -26 -25 -54 -44 -53 -37 -125 -105
-125 -119 0 -4 -11 -13 -24 -19 -32 -14 -63 -39 -103 -82 -41 -43 -31 -33
-133 -133 -47 -46 -98 -103 -115 -128 -16 -24 -40 -52 -52 -62 -13 -10 -23
-27 -23 -37 0 -11 -6 -23 -12 -27 -43 -27 -278 -342 -278 -372 0 -5 -9 -12
-19 -16 -10 -3 -22 -17 -25 -30 -4 -14 -7 -28 -8 -32 -2 -5 -11 -17 -21 -29
-24 -28 -107 -162 -107 -173 0 -5 -4 -11 -9 -13 -7 -2 -124 -213 -127 -228 0
-3 -21 -49 -46 -102 -26 -53 -49 -107 -53 -120 -4 -13 -13 -36 -21 -53 -7 -16
-34 -91 -59 -165 -25 -74 -49 -137 -54 -140 -7 -4 -22 -49 -25 -72 -1 -3 -4
-10 -8 -14 -5 -4 -8 -20 -8 -36 0 -15 -4 -36 -9 -46 -15 -28 -24 -55 -28 -87
-2 -16 -17 -77 -33 -135 -16 -58 -31 -116 -34 -130 -2 -14 -7 -36 -10 -50 -11
-49 -25 -145 -30 -215 0 -11 -4 -22 -7 -25 -10 -8 -20 -93 -25 -215 -3 -60 -6
-128 -7 -150 -1 -22 -6 -43 -12 -47 -6 -5 -5 -8 4 -8 11 0 11 -3 1 -15 -9 -11
-9 -15 -1 -15 7 0 9 -5 4 -12 -9 -14 -13 -447 -5 -462 3 -5 6 -41 7 -80 2 -67
7 -112 29 -276 16 -121 66 -361 101 -490 14 -52 28 -103 30 -113 2 -10 13 -44
24 -75 16 -48 35 -113 46 -157 1 -5 7 -21 12 -35 6 -14 22 -59 36 -100 56
-163 178 -437 201 -452 6 -4 8 -8 4 -8 -7 0 52 -120 71 -144 4 -6 19 -31 32
-56 13 -25 27 -49 32 -55 26 -34 55 -85 49 -85 -4 0 -2 -4 3 -8 6 -4 17 -20
25 -37 16 -32 87 -143 104 -161 6 -7 25 -29 41 -49 17 -21 35 -43 40 -49 6 -6
24 -31 40 -56 32 -47 52 -74 72 -95 7 -8 13 -16 13 -20 0 -14 161 -207 226
-270 77 -76 349 -334 368 -350 29 -26 86 -73 124 -103 22 -19 51 -42 63 -53
12 -10 25 -19 29 -19 3 0 15 -8 26 -19 38 -35 354 -241 370 -241 3 0 18 -9 34
-20 15 -11 30 -17 34 -13 3 3 6 2 6 -4 0 -12 140 -99 152 -95 5 1 8 -2 8 -7 0
-12 311 -168 435 -219 105 -42 329 -123 355 -127 54 -8 140 -40 140 -52 0 -14
-1 -14 54 -18 38 -3 85 -22 98 -40 5 -6 11 -6 19 2 9 9 18 8 37 -5 30 -20 44
-23 99 -26 23 -1 50 -10 61 -19 13 -12 21 -14 29 -6 8 8 37 2 102 -21 76 -26
97 -29 126 -21 19 5 35 6 35 3 0 -13 40 -32 76 -37 20 -2 39 -6 41 -9 3 -2 18
0 34 4 18 5 29 5 29 -1 0 -6 5 -7 10 -4 6 3 35 8 65 11 54 4 56 4 45 -16 -11
-20 -9 -21 59 -18 39 1 71 6 71 10 0 12 78 10 85 -2 4 -6 152 -10 410 -10 258
0 406 4 410 10 3 5 21 10 40 10 19 0 37 -5 40 -10 4 -6 48 -10 103 -9 53 1 89
3 80 6 -10 2 -18 11 -18 19 0 8 4 13 9 9 5 -3 13 0 17 6 4 7 14 3 28 -13 11
-13 17 -18 12 -11 -14 22 3 28 19 7 14 -18 16 -18 29 -1 15 19 31 23 20 5 -6
-9 -3 -9 9 1 9 7 23 11 32 7 8 -3 14 0 12 7 -4 20 53 21 69 0 7 -10 14 -13 14
-8 0 6 5 3 10 -5 7 -11 10 -11 10 -2 0 7 5 10 12 6 6 -4 8 -3 4 4 -3 6 -16 9
-28 7 -11 -3 -17 -1 -14 3 11 10 50 9 58 -2 4 -6 13 -5 22 3 14 12 40 16 126
21 14 1 19 4 13 7 -7 2 -13 9 -13 15 0 6 23 8 58 6 41 -2 60 1 68 11 12 15 49
8 40 -8 -6 -10 11 -10 29 0 6 3 21 4 35 3 14 -1 28 3 33 10 5 8 10 7 17 -4 5
-8 10 -10 10 -4 0 5 -6 16 -12 22 -10 10 -7 12 12 8 14 -2 27 -5 30 -5 3 -1
-1 -5 -9 -10 -10 -7 -7 -9 11 -8 13 1 25 7 25 14 0 6 -6 9 -14 6 -7 -3 -13 -1
-13 4 0 5 11 10 25 11 15 1 23 -3 21 -11 -1 -6 -1 -9 1 -4 3 4 10 4 15 1 7 -5
8 -2 3 5 -4 7 -2 31 3 54 16 63 22 218 8 210 -6 -4 -5 0 2 9 14 18 20 117 22
400 l1 188 27 0 c42 0 57 14 37 34 -21 21 -50 22 -50 1 -1 -26 -16 -34 -40
-23 -19 9 -31 8 -50 -2 -17 -9 -44 -11 -102 -5 -134 13 -202 7 -188 -16 7 -11
-3 -10 -171 7 -56 5 -63 4 -77 -16 -15 -21 -20 -22 -99 -15 -107 9 -257 13
-280 7 -10 -2 -18 -11 -18 -19 0 -9 -9 -14 -22 -13 -13 1 -27 1 -33 0 -11 -2
-377 -1 -385 1 -3 1 -9 0 -15 -1 -13 -2 -207 -2 -220 0 -5 1 -14 1 -20 0 -24
-6 -300 2 -305 9 -8 12 -97 32 -114 25 -9 -3 -13 -11 -9 -17 4 -6 1 -7 -6 -2
-7 4 -34 9 -59 11 -26 3 -56 6 -67 8 -11 2 -41 4 -67 5 -35 1 -48 5 -48 15 0
24 -16 27 -64 14 -42 -11 -47 -10 -70 11 -16 16 -26 19 -31 11 -4 -7 -17 -9
-34 -5 -38 10 -63 15 -91 20 -14 2 -56 11 -95 20 -38 9 -81 19 -95 21 -154 28
-702 269 -852 375 -14 11 -29 19 -32 19 -6 0 -243 151 -261 167 -5 5 -26 20
-45 33 -47 33 -222 169 -287 223 -48 40 -394 386 -391 392 5 10 -37 65 -54 70
-9 3 -19 16 -22 28 -5 22 -53 80 -72 88 -12 5 -64 85 -64 99 0 5 -4 10 -8 10
-5 0 -15 12 -23 28 -8 15 -16 29 -19 32 -9 8 -127 212 -141 243 -7 15 -16 27
-21 27 -4 0 -7 3 -6 8 1 4 -33 77 -75 162 -74 152 -217 496 -217 524 0 8 -5
18 -10 21 -6 4 -8 11 -5 16 4 5 2 9 -3 9 -5 0 -9 6 -10 13 -4 26 -9 53 -15 67
-3 8 -8 31 -10 50 -4 34 -9 51 -27 95 -5 11 -11 44 -15 74 -3 29 -8 58 -11 63
-4 6 -8 33 -10 62 -3 54 -12 101 -22 126 -21 53 -36 679 -18 790 4 30 9 79 9
108 1 28 4 52 8 52 4 0 7 20 6 45 0 24 2 47 5 51 4 3 4 16 2 29 -2 13 1 27 8
31 8 5 9 2 5 -9 -3 -9 -2 -19 3 -22 4 -3 6 13 4 34 -4 31 0 44 17 60 19 17 20
23 9 36 -10 12 -10 21 -1 41 6 14 11 45 11 69 0 24 4 45 9 47 6 2 12 18 16 35
21 123 103 369 127 384 6 4 5 9 -3 14 -9 6 -6 11 10 16 18 7 20 12 12 28 -6
11 -8 21 -3 23 4 2 18 16 32 31 19 22 22 30 11 36 -10 7 -8 10 8 16 16 5 20
12 16 23 -15 36 -17 52 -6 52 6 0 11 7 11 15 0 8 3 15 8 15 4 0 15 18 24 40
13 28 22 38 33 34 17 -7 19 4 5 26 -7 11 -5 17 8 21 9 3 17 15 17 25 0 11 6
18 14 16 9 -2 11 3 7 14 -7 17 21 84 35 84 5 0 9 8 9 18 1 9 16 42 35 72 19
30 39 65 45 78 5 12 30 42 54 67 25 25 41 45 36 45 -17 0 -11 18 12 40 12 11
18 20 14 20 -4 0 2 10 14 22 11 12 20 26 20 31 0 12 88 97 100 97 5 0 7 6 4
14 -3 7 2 20 10 29 8 8 17 20 18 27 2 6 28 38 58 70 88 92 109 118 103 124 -4
3 -1 6 5 6 6 0 22 10 35 23 50 48 202 184 291 260 27 23 54 47 60 52 23 21 84
71 126 105 24 19 59 50 79 67 20 18 43 33 50 33 8 0 26 11 40 24 15 13 77 50
139 82 120 63 121 64 196 108 36 21 50 25 56 16 6 -9 11 -6 21 11 25 48 57 66
111 64 23 0 39 4 43 13 2 7 10 12 17 10 7 -1 31 9 53 24 51 33 161 72 177 62
8 -5 7 0 -2 11 -8 10 -10 16 -4 12 6 -4 32 4 57 17 32 15 66 23 112 25 37 1
76 4 88 7 69 13 85 17 114 30 23 10 30 19 26 31 -5 13 -1 15 20 11 15 -3 27
-1 27 4 0 5 5 6 10 3 6 -4 8 -10 6 -14 -3 -4 6 -7 19 -7 22 0 25 9 4 12 -22 3
-23 5 -9 14 8 5 28 10 43 10 16 0 26 4 23 9 -6 9 50 7 83 -4 13 -4 31 1 49 13
25 18 87 28 77 12 -2 -3 2 -7 10 -7 11 0 12 4 4 13 -7 8 -6 14 2 20 7 4 10 3
7 -2 -7 -10 11 -28 32 -32 11 -2 10 1 -2 11 -10 8 -18 17 -18 20 0 12 183 22
287 16 l32 -2 3 -123 c2 -78 -1 -124 -7 -124 -7 0 -7 -3 0 -8 15 -11 17 -32 3
-32 -8 0 -8 -3 -2 -9 5 -6 7 -125 4 -305 -3 -163 -3 -296 0 -296 3 0 3 -88 0
-196 -3 -108 -3 -197 -1 -199 3 -4 2 -183 -2 -318 -1 -31 2 -57 7 -57 5 0 4
-6 -1 -12 -5 -8 -8 -337 -7 -810 1 -632 4 -801 14 -813 11 -13 9 -19 -11 -36
-13 -11 -19 -23 -14 -27 23 -16 33 -52 29 -93 -8 -67 -5 -144 6 -144 1 0 3
-11 5 -25 19 -132 24 -138 103 -138 31 0 59 -1 62 -2 11 -4 267 -9 695 -15
248 -4 498 -7 558 -8 59 -1 107 2 107 6 0 5 5 5 11 1 6 -4 39 -6 73 -6 33 0
134 1 224 1 l162 1 -2 420 c-2 231 -1 420 2 420 4 0 6 17 5 39 0 27 -4 37 -13
34 -7 -3 -18 -1 -25 4 -6 4 -25 8 -42 6 -54 -3 -1018 -4 -1021 0 -3 3 -6 581
-3 602 1 6 1 13 0 17 -1 8 -1 1433 1 1946 0 231 4 322 12 322 6 0 4 4 -4 10
-12 8 -12 11 2 27 10 10 17 27 17 38 0 11 2 35 4 53 5 34 1 38 -23 22 -13 -8
-12 -10 4 -10 11 0 17 -3 13 -6 -3 -4 -14 -3 -24 0 -15 6 -13 10 12 32 17 14
25 23 19 20 -7 -3 -15 2 -19 12 -11 24 -15 45 -7 37 4 -4 7 -12 7 -18 0 -5 7
-12 15 -14 9 -3 11 -1 5 4 -5 4 -10 47 -10 95 0 81 -6 107 -18 76 -3 -7 -4 -3
-4 9 1 12 5 19 9 17 4 -3 8 2 8 11 0 10 -5 14 -12 9 -10 -6 -10 -4 0 7 6 7 12
20 12 28 0 14 -1 14 -10 1 -5 -8 -10 -10 -10 -4 0 5 4 14 9 20 5 5 11 61 14
124 4 63 9 124 12 135 13 43 -12 54 -135 61 -209 11 -253 12 -522 14 -148 1
-268 5 -268 10 0 5 -5 21 -12 37 -6 15 -11 31 -10 36 3 11 -143 6 -243 -9z
m1175 -624 c0 -5 -2 -10 -4 -10 -3 0 -8 5 -11 10 -3 6 -1 10 4 10 6 0 11 -4
11 -10z m-2 -205 c-3 -3 -9 2 -12 12 -6 14 -5 15 5 6 7 -7 10 -15 7 -18z m899
-8419 c-2 -6 -17 -11 -33 -12 -16 -1 -30 -2 -31 -3 -8 -3 -13 0 -10 7 1 4 5 6
10 5 4 -2 7 1 7 5 0 5 14 9 30 9 17 0 29 -5 27 -11z m-617 -96 c0 -5 -4 -10
-10 -10 -5 0 -10 5 -10 10 0 6 5 10 10 10 6 0 10 -4 10 -10z"/>
<path d="M3870 7804 c-25 -13 -59 -25 -76 -27 -16 -2 -41 -10 -54 -17 -14 -7
-26 -13 -27 -12 -2 1 -5 1 -8 1 -3 -1 -8 -2 -12 -3 -30 -7 -53 -19 -49 -25 3
-4 -4 -8 -15 -8 -55 -4 -450 -186 -533 -245 -6 -5 -56 -38 -110 -74 -55 -36
-134 -93 -175 -127 -73 -58 -89 -72 -128 -108 -10 -9 -49 -40 -88 -70 -77 -59
-227 -208 -220 -219 2 -4 -7 -12 -20 -18 -14 -7 -25 -15 -25 -20 0 -5 -14 -24
-31 -43 -102 -114 -319 -433 -319 -469 0 -5 -4 -10 -10 -10 -5 0 -10 -4 -10
-9 0 -5 -19 -42 -43 -83 -39 -67 -80 -146 -82 -158 0 -3 -8 -21 -17 -40 -21
-45 -70 -181 -72 -200 -1 -9 -5 -20 -8 -25 -3 -6 -9 -26 -13 -45 -4 -19 -18
-61 -32 -93 -13 -33 -22 -64 -20 -70 2 -7 -4 -36 -14 -64 -10 -29 -15 -53 -12
-53 3 0 0 -6 -6 -13 -6 -8 -13 -29 -15 -48 -3 -19 -6 -35 -7 -36 -6 -8 -18
-101 -23 -173 -3 -36 -8 -105 -13 -155 -10 -113 -10 -419 -1 -504 4 -36 13
-68 20 -73 11 -6 10 -8 0 -8 -7 0 -11 -4 -8 -8 5 -9 13 -64 20 -152 3 -30 10
-70 15 -87 5 -18 7 -33 4 -33 -3 0 0 -7 7 -15 7 -8 10 -15 7 -15 -3 0 4 -33
15 -72 11 -40 22 -85 25 -101 3 -15 9 -30 14 -33 5 -3 9 -14 9 -25 0 -10 4
-19 8 -19 5 0 15 -26 22 -57 7 -31 16 -64 20 -73 5 -8 23 -53 41 -100 18 -47
38 -97 46 -112 7 -15 14 -31 15 -35 0 -5 21 -46 46 -93 60 -112 66 -124 72
-130 3 -3 11 -15 18 -27 6 -13 18 -33 25 -45 6 -13 15 -25 18 -28 3 -3 14 -20
24 -37 11 -18 25 -33 32 -33 7 0 12 -3 11 -7 -2 -7 68 -119 82 -133 3 -3 30
-39 60 -80 30 -41 57 -77 60 -80 3 -3 32 -36 65 -75 123 -144 285 -297 444
-418 42 -31 85 -65 96 -74 11 -9 20 -16 20 -14 0 4 117 -69 140 -86 53 -41
514 -266 601 -295 38 -12 71 -26 72 -30 2 -4 12 -8 23 -8 10 0 19 -5 19 -12 0
-6 3 -9 6 -6 3 4 20 2 37 -4 18 -5 48 -12 67 -14 19 -3 80 -19 135 -35 55 -17
127 -39 160 -48 33 -10 78 -24 100 -31 29 -8 48 -9 68 -1 36 14 87 14 87 1 0
-10 3793 -15 3835 -4 11 3 32 26 47 52 71 130 93 171 158 300 39 76 79 149 90
162 11 12 17 26 15 30 -3 5 -2 10 3 12 15 6 122 203 122 225 0 7 4 13 9 13 5
0 12 10 16 23 4 12 8 25 10 30 1 4 3 12 4 17 0 6 8 10 16 10 8 0 15 5 15 10 0
6 -39 10 -95 11 -52 0 -115 1 -139 1 -24 1 -48 -2 -55 -6 -6 -4 -11 -4 -11 1
0 4 -114 8 -253 8 -138 0 -262 3 -275 7 -15 5 -21 4 -17 -2 8 -12 8 -12 -33
-1 -18 6 -30 6 -28 2 3 -4 -13 -7 -35 -6 -21 0 -39 3 -39 6 0 7 -55 3 -68 -5
-6 -3 -12 -1 -14 5 -3 9 -9 9 -25 0 -14 -7 -24 -8 -28 -1 -3 5 -11 10 -16 10
-6 0 -8 -4 -5 -8 4 -7 -26 -8 -44 -2 -18 7 -148 4 -164 -3 -10 -5 -16 -5 -13
0 8 12 -247 12 -255 -1 -5 -7 -8 -7 -8 -1 0 6 -35 11 -80 12 -45 1 -80 -2 -80
-8 0 -5 -5 -9 -11 -9 -5 0 -8 4 -5 9 4 5 -52 9 -133 10 -77 0 -143 1 -148 2
-4 1 -12 1 -18 0 -29 -5 -336 -1 -345 4 -5 3 -10 3 -10 -2 0 -4 -48 -7 -107
-5 -265 6 -373 6 -373 0 0 -4 -7 -5 -15 -1 -28 10 -335 9 -335 -2 0 -7 -3 -7
-8 0 -8 12 -282 14 -282 2 0 -5 -5 -5 -11 -2 -12 8 -159 12 -159 5 0 -3 -44
-3 -97 0 -54 3 -149 3 -211 0 -62 -3 -124 -2 -137 2 -14 3 -27 2 -30 -2 -3 -5
-11 -7 -18 -5 -13 5 -77 12 -187 21 -84 6 -101 9 -122 18 -9 4 -22 9 -30 10
-42 8 -239 66 -253 75 -5 3 -16 6 -22 7 -50 8 -268 103 -329 145 -40 27 -78
49 -84 49 -5 0 -10 5 -10 10 0 6 -5 10 -10 10 -6 0 -16 5 -23 10 -19 17 -179
120 -185 120 -3 0 -22 18 -41 39 -41 44 -270 287 -317 335 -36 37 -94 120 -94
135 0 6 -4 11 -9 11 -5 0 -14 12 -20 28 -6 15 -21 43 -32 62 -31 50 -129 249
-144 290 -1 3 -5 12 -8 20 -31 73 -94 264 -112 340 -2 8 -4 15 -5 15 -1 0 -3
9 -5 20 -1 11 -7 40 -13 65 -10 40 -26 237 -25 295 1 66 13 283 17 300 2 11 7
47 11 80 4 32 9 68 11 80 3 11 7 40 10 65 3 24 8 48 10 52 3 5 7 18 10 31 9
47 12 63 23 102 6 22 9 43 8 46 -1 3 4 13 10 21 7 8 19 33 27 55 24 68 128
283 137 283 5 0 9 9 9 19 0 11 6 26 13 33 7 7 26 33 41 58 15 25 32 54 39 65
21 35 154 208 199 259 69 80 160 169 203 201 22 17 45 35 50 41 10 11 200 138
240 160 11 7 72 37 135 68 63 32 123 61 132 66 9 5 45 19 80 31 35 11 65 23
67 25 2 2 -3 14 -12 27 -14 21 -16 84 -18 468 -1 244 -5 451 -8 460 -5 15 -11
14 -51 -7z"/>
<path d="M3872 6110 c-18 -11 -32 -23 -32 -28 0 -4 -17 -16 -37 -27 -78 -42
-263 -190 -263 -211 0 -7 -63 -64 -71 -64 -5 0 -12 -12 -15 -27 -4 -16 -19
-41 -35 -56 -24 -24 -129 -171 -129 -181 0 -2 -12 -30 -27 -62 -15 -33 -28
-62 -28 -66 0 -3 -3 -10 -7 -14 -5 -4 -8 -14 -8 -21 0 -8 -9 -34 -20 -58 -11
-24 -25 -74 -30 -112 -6 -37 -13 -79 -15 -93 -26 -169 -27 -445 -2 -570 33
-163 65 -263 118 -375 47 -98 109 -206 129 -225 3 -3 25 -32 49 -65 41 -54
228 -248 276 -285 11 -8 38 -29 60 -45 22 -17 62 -42 90 -55 27 -14 67 -42 89
-63 27 -25 43 -34 50 -27 16 16 33 12 39 -11 3 -12 10 -18 17 -14 6 4 23 4 36
1 21 -6 23 -10 14 -21 -17 -20 1 -27 72 -26 34 0 68 -5 75 -11 7 -6 13 -7 13
-2 0 5 4 3 9 -4 6 -10 81 -23 149 -25 6 0 12 -4 12 -8 0 -4 8 -8 18 -7 9 0 37
-3 62 -6 65 -9 205 -11 218 -2 7 4 12 3 12 -2 0 -14 1393 -13 1402 1 5 7 8 8
8 2 0 -11 158 -12 186 -1 7 3 14 1 14 -4 0 -5 6 -7 13 -4 27 10 87 10 87 0 0
-8 3 -8 8 -1 4 6 36 11 72 12 197 4 1061 4 1067 0 5 -3 17 -1 28 3 11 4 32 4
47 -1 16 -4 30 -3 34 2 3 5 10 7 15 4 5 -4 169 -7 364 -9 195 -1 358 -5 361
-9 4 -4 13 -2 21 4 9 8 13 8 13 1 0 -7 10 -8 29 -2 16 4 32 6 34 3 3 -2 114
-6 246 -8 241 -4 242 -4 252 18 5 12 19 38 31 57 54 90 168 302 167 314 0 5 4
12 9 15 10 6 233 442 234 458 1 4 8 13 17 20 13 10 5 13 -44 14 -33 1 -64 0
-70 -1 -5 -1 -17 -1 -25 -1 -8 0 -202 2 -431 4 -229 3 -421 7 -427 11 -6 3
-13 2 -16 -3 -3 -4 -23 -5 -45 -1 -25 4 -44 3 -50 -3 -8 -8 -11 -7 -11 1 0 9
-5 10 -19 3 -10 -6 -20 -8 -23 -6 -9 9 -67 12 -79 4 -7 -4 -19 -3 -26 3 -10 8
-13 7 -13 -3 0 -12 -2 -12 -9 0 -6 10 -13 10 -28 2 -11 -5 -23 -7 -27 -4 -10
11 -216 9 -216 -2 0 -6 -3 -6 -8 0 -8 12 -101 14 -118 3 -6 -4 -14 -4 -18 -1
-12 13 -196 12 -189 -1 5 -8 3 -8 -8 0 -10 8 -124 12 -374 12 -198 0 -364 1
-370 2 -5 1 -14 1 -20 0 -20 -4 -219 1 -227 6 -4 3 -8 1 -8 -3 0 -5 -27 -6
-60 -3 -33 3 -60 2 -60 -3 0 -4 -4 -5 -10 -2 -15 9 -300 11 -300 2 0 -5 -5 -5
-12 -1 -17 11 -189 11 -210 1 -10 -4 -18 -4 -18 0 0 10 -212 9 -228 -1 -7 -4
-12 -4 -12 1 0 12 -513 10 -522 -2 -5 -7 -8 -7 -8 0 0 6 -37 10 -90 10 -49 0
-90 -3 -90 -6 0 -4 -18 -3 -40 1 -22 4 -42 5 -44 3 -10 -11 -349 -3 -384 8
-132 42 -249 103 -340 176 -60 49 -95 83 -85 83 4 0 3 4 -3 8 -14 9 -95 172
-86 172 4 0 2 4 -4 8 -9 6 -51 114 -72 186 -3 12 -7 131 -8 266 -3 263 -12
795 -14 795 -1 0 -3 60 -6 134 -2 74 -6 136 -7 138 -2 1 -17 -7 -35 -17z"/>
<path d="M965 5231 c-3 -5 -1 -12 5 -16 5 -3 10 1 10 9 0 18 -6 21 -15 7z"/>
</g>
</svg>
